HIERARCHY
ROOT root
{
  OFFSET 0.000000 0.000000 0.000000
  CHANNELS 6 Xposition Yposition Zposition Zrotation Yrotation Xrotation
  JOINT lhipjoint
  {
    OFFSET 0.000000 0.000000 0.000000
    CHANNELS 3 Zrotation Yrotation Xrotation
    JOINT lfemur
    {
      OFFSET 0.076955 -0.088858 0.062674
      CHANNELS 3 Zrotation Yrotation Xrotation
      JOINT ltibia
      {
        OFFSET 0.134602 -0.369817 0.000000
        CHANNELS 3 Zrotation Yrotation Xrotation
        JOINT lfoot
        {
          OFFSET 0.133867 -0.367797 0.000000
          CHANNELS 3 Zrotation Yrotation Xrotation
          JOINT ltoes
          {
            OFFSET 0.016413 -0.045094 0.113675
            CHANNELS 3 Zrotation Yrotation Xrotation
            End Site
            {
              OFFSET 0.000000 -0.000000 0.060917
            }
          }
        }
      }
    }
  }
  JOINT rhipjoint
  {
    OFFSET 0.000000 0.000000 0.000000
    CHANNELS 3 Zrotation Yrotation Xrotation
    JOINT rfemur
    {
      OFFSET -0.076961 -0.088859 0.062674
      CHANNELS 3 Zrotation Yrotation Xrotation
      JOINT rtibia
      {
        OFFSET -0.129575 -0.356005 0.000000
        CHANNELS 3 Zrotation Yrotation Xrotation
        JOINT rfoot
        {
          OFFSET -0.136022 -0.373719 0.000000
          CHANNELS 3 Zrotation Yrotation Xrotation
          JOINT rtoes
          {
            OFFSET -0.013093 -0.035974 0.108504
            CHANNELS 3 Zrotation Yrotation Xrotation
            End Site
            {
              OFFSET -0.000000 -0.000000 0.057326
            }
          }
        }
      }
    }
  }
  JOINT lowerback
  {
    OFFSET 0.000000 0.000000 0.000000
    CHANNELS 3 Zrotation Yrotation Xrotation
    JOINT upperback
    {
      OFFSET -0.004835 0.114922 -0.013864
      CHANNELS 3 Zrotation Yrotation Xrotation
      JOINT thorax
      {
        OFFSET -0.000021 0.116102 0.000122
        CHANNELS 3 Zrotation Yrotation Xrotation
        JOINT lowerneck
        {
          OFFSET 0.002188 0.117937 0.006733
          CHANNELS 3 Zrotation Yrotation Xrotation
          JOINT upperneck
          {
            OFFSET -0.002068 0.095682 0.017943
            CHANNELS 3 Zrotation Yrotation Xrotation
            JOINT head
            {
              OFFSET 0.000526 0.096058 -0.025972
              CHANNELS 3 Zrotation Yrotation Xrotation
              End Site
              {
                OFFSET 0.000701 0.100257 -0.010937
              }
            }
          }
        }
        JOINT lclavicle
        {
          OFFSET 0.002188 0.117937 0.006733
          CHANNELS 3 Zrotation Yrotation Xrotation
          JOINT lhumerus
          {
            OFFSET 0.211297 0.045898 -0.020685
            CHANNELS 3 Zrotation Yrotation Xrotation
            JOINT lradius
            {
              OFFSET 0.280633 -0.000000 -0.000000
              CHANNELS 3 Zrotation Yrotation Xrotation
              JOINT lwrist
              {
                OFFSET 0.189547 -0.000000 0.000000
                CHANNELS 3 Zrotation Yrotation Xrotation
                End Site
                {
                  OFFSET 0.094773 -0.000000 0.000000
                }
              }
            }
          }
        }
        JOINT rclavicle
        {
          OFFSET 0.002188 0.117937 0.006733
          CHANNELS 3 Zrotation Yrotation Xrotation
          JOINT rhumerus
          {
            OFFSET -0.211884 0.028598 -0.003683
            CHANNELS 3 Zrotation Yrotation Xrotation
            JOINT rradius
            {
              OFFSET -0.280243 -0.000000 -0.000000
              CHANNELS 3 Zrotation Yrotation Xrotation
              JOINT rwrist
              {
                OFFSET -0.189049 -0.000000 0.000000
                CHANNELS 3 Zrotation Yrotation Xrotation
                End Site
                {
                  OFFSET -0.094524 -0.000000 0.000000
                }
              }
            }
          }
        }
      }
    }
  }
}
MOTION
Frames: 10
Frame Time: 0.04166667
0.00000 0.82628 0.00000 9.69400 59.97800 29.14900 0.00000 -0.00000 0.00000 -6.90354 -3.36158 -64.09437 9.18837 16.92742 56.73931 0.26045 4.51753 -12.37687 0.39909 -4.05601 -11.23429 0.00000 -0.00000 0.00000 -5.93489 9.01086 -49.88882 -10.61744 -17.74273 61.53283 -2.39138 7.89995 -27.85731 -0.65500 5.17666 -14.41311 1.31478 -0.77797 38.16230 -1.20339 0.20883 9.80267 -2.09024 0.45188 -7.83536 0.93991 7.33260 -34.73610 -10.26320 14.62220 30.11600 -1.14031 4.33798 18.05460 0.00000 -0.00000 0.00000 -99.06003 -35.27163 119.10004 30.43176 -41.26061 -11.69332 0.00000 -0.00000 -2.56287 0.00000 -0.00000 0.00000 83.72248 12.03316 39.95386 -25.98019 37.18915 -8.87567 -0.00000 0.00000 -68.97480
0.00000 0.82009 0.00000 5.87400 59.51700 27.57400 0.00000 -0.00000 0.00000 -6.16887 -4.65096 -67.56826 11.11640 17.99157 63.15899 0.71237 2.12471 -16.85035 0.14295 -2.43663 -6.71399 0.00000 -0.00000 0.00000 -7.64510 10.97787 -48.62872 -10.27251 -17.56027 60.39533 -2.59434 5.66023 -29.28138 -1.00442 6.37731 -17.88318 -0.40779 0.60251 37.01060 -1.89833 1.19279 10.14670 -2.27837 0.91956 -7.03390 0.19898 6.80891 -35.22110 -8.37501 13.66330 31.26770 -0.42801 4.07099 18.37230 0.00000 -0.00000 0.00000 -100.13206 -36.21711 121.28818 28.18699 -39.28781 -10.24188 0.00000 -0.00000 -1.34600 0.00000 -0.00000 0.00000 82.63408 11.20247 42.34801 -26.34171 37.54415 -9.09508 -0.00000 0.00000 -69.74710
0.00000 0.82154 0.00000 2.11400 60.68200 25.43600 0.00000 -0.00000 0.00000 -6.07937 -6.68233 -68.36919 12.09573 18.43082 66.29192 1.14339 0.72285 -20.48476 0.15851 -2.56528 -7.07071 0.00000 -0.00000 0.00000 -6.60564 10.79878 -47.08485 -9.80755 -17.30021 58.84321 -2.30745 -0.76730 -29.03938 -1.37826 7.42901 -20.99274 -1.51999 1.28471 36.09370 -2.14777 1.62206 10.12720 -2.09779 1.11202 -6.73068 -0.29304 6.84247 -35.52350 -7.89353 13.48740 29.74810 -0.16840 4.09192 17.50890 0.00000 0.00000 0.00000 -102.03340 -36.35983 123.75293 25.46970 -36.68023 -8.56892 0.00000 -0.00000 -0.02621 0.00000 0.00000 0.00000 82.72693 10.87425 43.08387 -25.00455 36.20864 -8.29259 -0.00000 0.00000 -69.23590
0.00000 0.82640 0.00000 -0.13700 62.44800 23.07700 0.00000 -0.00000 0.00000 -7.25101 -7.66942 -66.55607 12.43964 18.57038 67.37570 1.49303 -1.49760 -22.67260 0.01952 -0.90193 -2.47902 0.00000 -0.00000 0.00000 -4.10215 9.22804 -43.94025 -9.40957 -17.06418 57.49605 -2.06189 -6.64913 -30.16138 -1.21991 7.00573 -19.73235 -1.25207 0.97042 35.52310 -2.47664 1.30366 9.96332 -2.46224 0.96893 -6.71058 0.09947 7.39931 -34.45930 -8.05313 13.33140 25.27270 -0.36645 4.35910 15.16150 0.00000 -0.00000 0.00000 -102.26526 -35.10978 124.42801 23.65100 -34.79302 -7.50648 0.00000 0.00000 0.01556 0.00000 -0.00000 0.00000 84.32636 10.16788 41.73835 -24.41937 35.60460 -7.94940 -0.00000 0.00000 -68.06280
0.00000 0.83226 0.00000 -1.97000 63.12000 20.59200 0.00000 -0.00000 0.00000 -8.64635 -7.34208 -63.71649 12.45063 18.57471 67.41021 1.75454 -2.47520 -24.38742 0.01690 -0.83932 -2.30679 0.00000 -0.00000 0.00000 -1.81544 8.42191 -41.73967 -8.78272 -16.66585 55.33564 -1.92370 -9.81749 -31.26938 -1.26996 7.14267 -20.13873 -1.14984 1.02087 35.39330 -2.10807 1.38468 9.44963 -2.16374 0.97858 -7.23161 0.54436 8.10035 -33.52010 -8.41063 13.17380 17.84280 -0.68654 4.77681 11.93320 -0.00000 -0.00000 0.00000 -101.90601 -34.05415 124.85806 23.14799 -34.25025 -7.22141 0.00000 0.00000 0.00666 -0.00000 -0.00000 0.00000 84.17649 9.78260 42.33411 -23.40129 34.52471 -7.36448 -0.00000 0.00000 -66.37360
0.00000 0.83720 0.00000 -2.56100 62.25000 19.63800 0.00000 -0.00000 0.00000 -9.93490 -6.74127 -61.29299 12.34028 18.53082 67.06341 2.11810 -2.64742 -26.84442 0.02894 -1.09811 -3.01880 0.00000 -0.00000 0.00000 -0.71831 8.36094 -43.60466 -8.85611 -16.71423 55.59117 -1.50733 -10.77728 -29.29750 -1.45122 7.61479 -21.55004 -1.44001 1.20896 34.48950 -1.70521 1.50074 9.00031 -1.60956 0.99477 -7.53295 1.45121 8.62528 -33.40470 -8.34004 12.98970 13.39210 -0.89634 5.04331 10.25910 -0.00000 0.00000 0.00000 -101.31660 -32.88098 123.88098 23.88294 -35.04022 -7.63924 0.00000 -0.00000 -0.60461 -0.00000 0.00000 0.00000 82.89172 9.47816 44.54711 -23.66620 34.80928 -7.51516 -0.00000 0.00000 -66.89190
0.00000 0.83917 0.00000 -1.13200 60.78700 20.91300 0.00000 -0.00000 0.00000 -11.48086 -6.32835 -59.71630 12.27254 18.50350 66.85010 2.33746 -1.62627 -28.50055 0.09928 -2.03188 -5.59377 0.00000 -0.00000 0.00000 -0.00047 8.00636 -48.57202 -9.32824 -17.01437 57.21850 -1.15688 -9.78498 -26.03464 -1.98527 8.83532 -25.28155 -1.87259 1.01408 32.94040 -1.18441 1.12246 8.51100 -0.67177 0.78115 -7.50615 2.23504 9.02311 -33.53680 -8.85403 13.20970 12.43320 -1.16065 5.17160 10.03220 -0.00000 -0.00000 0.00000 -100.07135 -32.64815 123.81763 25.68721 -36.89817 -8.69918 0.00000 -0.00000 -4.38384 -0.00000 -0.00000 0.00000 81.14084 9.48785 47.59811 -25.42192 36.63213 -8.54039 -0.00000 0.00000 -67.96130
0.00000 0.84163 0.00000 1.66800 59.55200 22.69500 0.00000 -0.00000 0.00000 -13.53678 -5.27930 -57.21644 11.94936 18.36916 65.82821 2.55409 -1.48612 -29.86585 0.07321 -1.74559 -4.80307 0.00000 -0.00000 0.00000 -0.33174 8.61080 -51.91192 -9.86126 -17.33109 59.02364 -1.86960 -3.36434 -27.21591 -0.65168 5.16377 -14.37626 -1.44934 0.55344 31.85800 -0.29049 0.74172 8.50912 0.20869 0.57143 -7.76995 2.74689 9.30610 -33.66410 -10.36010 13.76120 12.76100 -1.64569 5.23365 10.39040 -0.00000 0.00000 0.00000 -99.67554 -32.54071 123.15365 26.84302 -38.02908 -9.40225 0.00000 -0.00000 -4.41520 -0.00000 0.00000 0.00000 79.78329 9.34537 48.58074 -26.80162 37.98936 -9.37676 -0.00000 0.00000 -67.93090
0.00000 0.83951 0.00000 6.77700 58.69600 26.34700 0.00000 -0.00000 0.00000 -16.42405 -2.94446 -55.85006 12.03020 18.40338 66.08450 2.53831 -3.09417 -29.38660 0.15248 -2.51618 -6.93451 0.00000 -0.00000 0.00000 -1.26445 7.78713 -52.51496 -10.41388 -17.63611 60.86290 -1.73375 -6.86495 -28.14790 -1.32344 7.28572 -20.56465 0.21786 -0.08017 30.82600 0.34969 0.49206 8.23489 0.06232 0.43062 -7.59843 3.96323 9.64992 -34.96450 -13.62940 14.91660 15.48950 -2.72544 5.16768 12.18660 -0.00000 0.00000 0.00000 -99.78517 -32.20630 121.80757 27.89265 -39.01722 -10.05603 0.00000 -0.00000 -3.50893 -0.00000 0.00000 0.00000 79.37877 8.47126 47.30584 -27.57517 38.72218 -9.85680 -0.00000 0.00000 -67.89750
0.00000 0.83236 0.00000 11.32400 58.65400 29.38100 0.00000 -0.00000 0.00000 -17.23469 0.57029 -59.36581 14.32569 19.20986 73.19670 1.31762 -4.98510 -20.63133 0.26071 -3.28496 -9.07313 0.00000 -0.00000 0.00000 -2.27282 6.32110 -51.69375 -11.28877 -18.07352 63.71584 -2.12758 -5.40006 -29.90062 -1.04019 6.48645 -18.20255 3.90620 -1.07197 30.06050 0.64445 0.33956 8.26864 -1.68014 0.34312 -7.17618 3.91425 9.39903 -36.66400 -15.78680 16.38110 21.13630 -3.27785 5.03129 15.32050 -0.00000 -0.00000 0.00000 -100.90903 -32.98016 122.19956 27.94197 -39.06276 -10.08709 0.00000 -0.00000 -3.60341 -0.00000 -0.00000 0.00000 80.20728 7.80744 44.73292 -26.88446 38.06879 -9.42780 -0.00000 0.00000 -68.04270
